<svg xmlns="http://www.w3.org/2000/svg" width="336" height="17" viewBox="0 0 336 17" fill="none">
<path d="M222.144 3.36H228.864V4.368H226.08V12H224.928V4.368H222.144V3.36ZM235.536 12V3.36H236.688V12H235.536ZM230.16 12V3.36H231.312V12H230.16ZM230.832 8.016V7.008H236.016V8.016H230.832ZM238.996 12V3.36H240.148V12H238.996ZM239.668 12V10.992H244.612V12H239.668ZM239.668 7.968V6.96H243.796V7.968H239.668ZM239.668 4.368V3.36H244.468V4.368H239.668ZM261.988 12V3.36H263.14V12H261.988ZM262.66 12V10.992H267.604V12H262.66ZM262.66 7.968V6.96H266.788V7.968H262.66ZM262.66 4.368V3.36H267.46V4.368H262.66ZM269.382 12V3.36H270.534V10.992H274.23V12H269.382ZM275.769 12V3.36H276.921V10.992H280.617V12H275.769ZM281.289 7.68C281.289 6.784 281.465 6.004 281.817 5.34C282.169 4.668 282.677 4.148 283.341 3.78C284.005 3.404 284.809 3.216 285.753 3.216C286.185 3.216 286.569 3.252 286.905 3.324C287.241 3.388 287.529 3.48 287.769 3.6V4.704H287.673C287.457 4.592 287.185 4.492 286.857 4.404C286.529 4.316 286.161 4.272 285.753 4.272C284.745 4.272 283.949 4.548 283.365 5.1C282.781 5.644 282.489 6.504 282.489 7.68C282.489 8.48 282.617 9.136 282.873 9.648C283.129 10.152 283.493 10.528 283.965 10.776C284.437 11.016 285.001 11.136 285.657 11.136C285.897 11.136 286.129 11.116 286.353 11.076C286.577 11.028 286.785 10.976 286.977 10.92L286.713 11.448V7.632H287.865V11.664C287.601 11.808 287.273 11.924 286.881 12.012C286.497 12.1 286.089 12.144 285.657 12.144C284.681 12.144 283.869 11.96 283.221 11.592C282.573 11.216 282.089 10.696 281.769 10.032C281.449 9.36 281.289 8.576 281.289 7.68ZM289.492 7.68C289.492 6.8 289.652 6.024 289.972 5.352C290.3 4.68 290.764 4.156 291.364 3.78C291.972 3.404 292.692 3.216 293.524 3.216C294.356 3.216 295.072 3.404 295.672 3.78C296.28 4.156 296.744 4.68 297.064 5.352C297.392 6.024 297.556 6.8 297.556 7.68C297.556 8.56 297.392 9.336 297.064 10.008C296.744 10.68 296.28 11.204 295.672 11.58C295.072 11.956 294.356 12.144 293.524 12.144C292.684 12.144 291.964 11.956 291.364 11.58C290.764 11.204 290.3 10.68 289.972 10.008C289.652 9.336 289.492 8.56 289.492 7.68ZM290.692 7.68C290.692 8.416 290.808 9.04 291.04 9.552C291.272 10.056 291.6 10.44 292.024 10.704C292.448 10.96 292.948 11.088 293.524 11.088C294.1 11.088 294.6 10.96 295.024 10.704C295.448 10.44 295.776 10.056 296.008 9.552C296.24 9.04 296.356 8.416 296.356 7.68C296.356 6.944 296.24 6.324 296.008 5.82C295.776 5.308 295.448 4.924 295.024 4.668C294.6 4.404 294.1 4.272 293.524 4.272C292.948 4.272 292.448 4.404 292.024 4.668C291.6 4.924 291.272 5.308 291.04 5.82C290.808 6.324 290.692 6.944 290.692 7.68ZM300.054 9.408V8.352H302.118C302.566 8.352 302.938 8.244 303.234 8.028C303.538 7.812 303.762 7.528 303.906 7.176C304.058 6.824 304.134 6.448 304.134 6.048C304.134 5.472 303.978 5.048 303.666 4.776C303.362 4.504 302.958 4.368 302.454 4.368H300.054V3.36H302.502C303.078 3.36 303.578 3.464 304.002 3.672C304.426 3.88 304.754 4.184 304.986 4.584C305.218 4.984 305.334 5.472 305.334 6.048C305.334 6.584 305.242 7.064 305.058 7.488C304.882 7.904 304.638 8.256 304.326 8.544C304.022 8.824 303.674 9.04 303.282 9.192C302.898 9.336 302.494 9.408 302.07 9.408H300.054ZM299.382 12V3.36H300.534V12H299.382ZM304.518 12L302.262 9.072L303.462 8.928L305.862 11.952V12H304.518ZM307.304 3.36H308.456V12H307.304V3.36ZM309.753 3.36H316.473V4.368H313.689V12H312.537V4.368H309.753V3.36ZM323.145 12V3.36H324.297V12H323.145ZM317.769 12V3.36H318.921V12H317.769ZM318.441 8.016V7.008H323.625V8.016H318.441ZM326.605 12V3.36H327.565L330.613 8.112H330.133L333.181 3.36H334.141V12H332.989V5.244L333.241 5.316L330.829 9.024H329.917L327.505 5.316L327.757 5.244V12H326.605Z" fill="black"/>
<path d="M256.253 12.144C255.965 12.144 255.697 12.128 255.449 12.096C255.209 12.072 254.933 12.024 254.621 11.952L254.597 11.808C254.605 11.648 254.605 11.448 254.597 11.208C254.589 10.968 254.577 10.728 254.561 10.488C254.553 10.248 254.541 10.048 254.525 9.888L253.781 3.36H254.957L255.653 9.888C255.669 10.072 255.681 10.308 255.689 10.596C255.697 10.884 255.701 11.14 255.701 11.364L255.449 11.016C255.593 11.056 255.717 11.088 255.821 11.112C255.925 11.128 256.085 11.136 256.301 11.136C256.685 11.136 256.993 11.06 257.225 10.908C257.457 10.748 257.637 10.524 257.765 10.236C257.901 9.948 258.005 9.608 258.077 9.216L259.229 3.36H260.405L259.253 9.168C259.125 9.8 258.953 10.34 258.737 10.788C258.521 11.228 258.217 11.564 257.825 11.796C257.433 12.028 256.909 12.144 256.253 12.144ZM251.453 12.144C251.165 12.144 250.897 12.128 250.649 12.096C250.409 12.072 250.133 12.024 249.821 11.952L249.797 11.808C249.805 11.648 249.805 11.448 249.797 11.208C249.797 10.968 249.789 10.728 249.773 10.488C249.765 10.248 249.749 10.048 249.725 9.888L248.981 3.36H250.157L250.853 9.888C250.877 10.072 250.889 10.308 250.889 10.596C250.897 10.884 250.901 11.14 250.901 11.364L250.649 11.016C250.793 11.048 250.917 11.076 251.021 11.1C251.125 11.124 251.285 11.136 251.501 11.136C251.885 11.136 252.193 11.056 252.425 10.896C252.657 10.736 252.837 10.512 252.965 10.224C253.093 9.936 253.197 9.6 253.277 9.216L254.165 4.992L254.477 8.16L254.261 9.168C254.125 9.8 253.957 10.34 253.757 10.788C253.565 11.228 253.289 11.564 252.929 11.796C252.569 12.028 252.077 12.144 251.453 12.144Z" fill="#51D038"/>
<path d="M4.44 12.12C3.76 12.12 3.14 12.028 2.58 11.844C2.02 11.66 1.552 11.36 1.176 10.944L2.016 10.176C2.312 10.472 2.656 10.7 3.048 10.86C3.448 11.012 3.888 11.088 4.368 11.088C4.56 11.088 4.752 11.076 4.944 11.052C5.144 11.028 5.332 10.988 5.508 10.932C5.684 10.868 5.824 10.784 5.928 10.68C6.04 10.576 6.096 10.448 6.096 10.296C6.096 10.04 5.908 9.852 5.532 9.732C5.348 9.668 5.136 9.608 4.896 9.552C4.656 9.496 4.392 9.444 4.104 9.396C3.624 9.3 3.192 9.196 2.808 9.084C2.432 8.964 2.12 8.808 1.872 8.616C1.696 8.472 1.56 8.3 1.464 8.1C1.368 7.9 1.32 7.664 1.32 7.392C1.32 7.112 1.396 6.864 1.548 6.648C1.7 6.424 1.908 6.232 2.172 6.072C2.436 5.904 2.744 5.78 3.096 5.7C3.456 5.612 3.844 5.568 4.26 5.568C4.604 5.568 4.964 5.604 5.34 5.676C5.724 5.748 6.084 5.86 6.42 6.012C6.764 6.156 7.052 6.344 7.284 6.576L6.612 7.404C6.412 7.252 6.176 7.112 5.904 6.984C5.64 6.856 5.364 6.76 5.076 6.696C4.796 6.624 4.528 6.588 4.272 6.588C4.08 6.588 3.884 6.6 3.684 6.624C3.484 6.648 3.296 6.688 3.12 6.744C2.952 6.8 2.816 6.88 2.712 6.984C2.608 7.08 2.556 7.2 2.556 7.344C2.556 7.44 2.584 7.528 2.64 7.608C2.696 7.688 2.772 7.76 2.868 7.824C3.036 7.928 3.26 8.02 3.54 8.1C3.828 8.172 4.148 8.24 4.5 8.304C4.932 8.384 5.336 8.476 5.712 8.58C6.088 8.684 6.408 8.824 6.672 9C6.88 9.136 7.04 9.296 7.152 9.48C7.264 9.656 7.32 9.868 7.32 10.116C7.32 10.54 7.188 10.904 6.924 11.208C6.668 11.504 6.324 11.732 5.892 11.892C5.46 12.044 4.976 12.12 4.44 12.12ZM13.6801 12.12C12.9041 12.12 12.2121 11.984 11.6041 11.712C10.9961 11.432 10.5201 11.052 10.1761 10.572C9.84009 10.084 9.67209 9.532 9.67209 8.916C9.67209 8.396 9.77209 7.932 9.97209 7.524C10.1721 7.108 10.4521 6.756 10.8121 6.468C11.1721 6.18 11.5881 5.956 12.0601 5.796C12.5401 5.636 13.0441 5.556 13.5721 5.556C14.0681 5.556 14.5321 5.632 14.9641 5.784C15.3961 5.936 15.7761 6.148 16.1041 6.42C16.4321 6.692 16.6841 7.016 16.8601 7.392C17.0441 7.76 17.1321 8.168 17.1241 8.616L17.1121 9.228H10.7521L10.4761 8.244H16.0441L15.8641 8.364V8.076C15.8241 7.804 15.6921 7.564 15.4681 7.356C15.2441 7.148 14.9641 6.988 14.6281 6.876C14.3001 6.756 13.9481 6.696 13.5721 6.696C13.0601 6.696 12.6001 6.768 12.1921 6.912C11.7921 7.056 11.4761 7.284 11.2441 7.596C11.0121 7.908 10.8961 8.32 10.8961 8.832C10.8961 9.264 11.0201 9.644 11.2681 9.972C11.5241 10.292 11.8761 10.54 12.3241 10.716C12.7801 10.892 13.3001 10.98 13.8841 10.98C14.4441 10.98 14.9121 10.904 15.2881 10.752C15.6721 10.6 16.0001 10.432 16.2721 10.248L16.8361 11.16C16.6121 11.336 16.3281 11.496 15.9841 11.64C15.6481 11.784 15.2801 11.9 14.8801 11.988C14.4881 12.076 14.0881 12.12 13.6801 12.12ZM20.5679 12V3.12H21.8039V12H20.5679ZM28.9379 12.12C28.1619 12.12 27.4699 11.984 26.8619 11.712C26.2539 11.432 25.7779 11.052 25.4339 10.572C25.0979 10.084 24.9299 9.532 24.9299 8.916C24.9299 8.396 25.0299 7.932 25.2299 7.524C25.4299 7.108 25.7099 6.756 26.0699 6.468C26.4299 6.18 26.8459 5.956 27.3179 5.796C27.7979 5.636 28.3019 5.556 28.8299 5.556C29.3259 5.556 29.7899 5.632 30.2219 5.784C30.6539 5.936 31.0339 6.148 31.3619 6.42C31.6899 6.692 31.9419 7.016 32.1179 7.392C32.3019 7.76 32.3899 8.168 32.3819 8.616L32.3699 9.228H26.0099L25.7339 8.244H31.3019L31.1219 8.364V8.076C31.0819 7.804 30.9499 7.564 30.7259 7.356C30.5019 7.148 30.2219 6.988 29.8859 6.876C29.5579 6.756 29.2059 6.696 28.8299 6.696C28.3179 6.696 27.8579 6.768 27.4499 6.912C27.0499 7.056 26.7339 7.284 26.5019 7.596C26.2699 7.908 26.1539 8.32 26.1539 8.832C26.1539 9.264 26.2779 9.644 26.5259 9.972C26.7819 10.292 27.1339 10.54 27.5819 10.716C28.0379 10.892 28.5579 10.98 29.1419 10.98C29.7019 10.98 30.1699 10.904 30.5459 10.752C30.9299 10.6 31.2579 10.432 31.5299 10.248L32.0939 11.16C31.8699 11.336 31.5859 11.496 31.2419 11.64C30.9059 11.784 30.5379 11.9 30.1379 11.988C29.7459 12.076 29.3459 12.12 28.9379 12.12ZM38.6817 12.12C37.9937 12.12 37.3697 11.976 36.8097 11.688C36.2577 11.4 35.8217 11.008 35.5017 10.512C35.1817 10.016 35.0217 9.46 35.0217 8.844C35.0217 8.22 35.1817 7.664 35.5017 7.176C35.8217 6.68 36.2577 6.288 36.8097 6C37.3697 5.712 37.9937 5.568 38.6817 5.568C39.3697 5.568 40.0057 5.68 40.5897 5.904C41.1737 6.12 41.6297 6.42 41.9577 6.804L41.2617 7.764C41.0697 7.564 40.8297 7.384 40.5417 7.224C40.2617 7.056 39.9617 6.924 39.6417 6.828C39.3297 6.732 39.0217 6.684 38.7177 6.684C38.2377 6.684 37.8137 6.78 37.4457 6.972C37.0857 7.156 36.8017 7.412 36.5937 7.74C36.3857 8.06 36.2817 8.428 36.2817 8.844C36.2817 9.26 36.3897 9.632 36.6057 9.96C36.8297 10.28 37.1257 10.536 37.4937 10.728C37.8697 10.912 38.2817 11.004 38.7297 11.004C39.0977 11.004 39.4337 10.96 39.7377 10.872C40.0497 10.784 40.3297 10.672 40.5777 10.536C40.8337 10.4 41.0697 10.256 41.2857 10.104L41.9577 11.028C41.5657 11.324 41.0937 11.58 40.5417 11.796C39.9897 12.012 39.3697 12.12 38.6817 12.12ZM46.1602 12V3.828H47.3962V12H46.1602ZM44.3362 6.9V5.7H49.5562V6.9H44.3362ZM60.7185 12.12C60.0225 12.12 59.4105 11.98 58.8825 11.7C58.3625 11.412 57.9545 11.02 57.6585 10.524C57.3705 10.028 57.2265 9.468 57.2265 8.844C57.2265 8.204 57.3785 7.64 57.6825 7.152C57.9945 6.656 58.4185 6.268 58.9545 5.988C59.4905 5.708 60.1065 5.568 60.8025 5.568C61.2265 5.568 61.6185 5.62 61.9785 5.724C62.3465 5.828 62.6625 5.968 62.9265 6.144C63.1985 6.32 63.4105 6.512 63.5625 6.72C63.7225 6.928 63.8065 7.136 63.8145 7.344L63.4785 7.332V5.7H64.7265V12H63.4785V10.332L63.7305 10.368C63.7225 10.568 63.6345 10.772 63.4665 10.98C63.2985 11.18 63.0745 11.368 62.7945 11.544C62.5145 11.712 62.1945 11.852 61.8345 11.964C61.4825 12.068 61.1105 12.12 60.7185 12.12ZM61.0065 10.98C61.5025 10.98 61.9385 10.888 62.3145 10.704C62.6985 10.512 62.9945 10.256 63.2025 9.936C63.4185 9.608 63.5265 9.244 63.5265 8.844C63.5265 8.436 63.4185 8.072 63.2025 7.752C62.9945 7.432 62.6985 7.18 62.3145 6.996C61.9385 6.812 61.5025 6.72 61.0065 6.72C60.5185 6.72 60.0825 6.812 59.6985 6.996C59.3225 7.18 59.0265 7.432 58.8105 7.752C58.5945 8.072 58.4865 8.436 58.4865 8.844C58.4865 9.244 58.5945 9.608 58.8105 9.936C59.0265 10.256 59.3225 10.512 59.6985 10.704C60.0825 10.888 60.5185 10.98 61.0065 10.98ZM68.8394 12V5.7H70.0754V7.344L69.6794 7.404C69.8394 7.1 70.0554 6.812 70.3274 6.54C70.5994 6.26 70.9234 6.028 71.2994 5.844C71.6834 5.66 72.1074 5.568 72.5714 5.568C73.1794 5.568 73.6874 5.684 74.0954 5.916C74.5034 6.14 74.8114 6.456 75.0194 6.864C75.2274 7.264 75.3314 7.724 75.3314 8.244V12H74.0954V8.412C74.0954 8.06 74.0114 7.756 73.8434 7.5C73.6834 7.244 73.4634 7.048 73.1834 6.912C72.9114 6.776 72.5994 6.708 72.2474 6.708C71.9274 6.708 71.6354 6.764 71.3714 6.876C71.1074 6.988 70.8754 7.136 70.6754 7.32C70.4834 7.496 70.3354 7.692 70.2314 7.908C70.1274 8.116 70.0754 8.324 70.0754 8.532V12H69.4634C69.2794 12 69.1354 12 69.0314 12C68.9274 12 68.8634 12 68.8394 12ZM87.2498 12.12C86.5538 12.12 85.9418 11.98 85.4138 11.7C84.8938 11.412 84.4858 11.02 84.1898 10.524C83.9018 10.028 83.7578 9.468 83.7578 8.844C83.7578 8.204 83.9098 7.64 84.2138 7.152C84.5258 6.656 84.9498 6.268 85.4858 5.988C86.0218 5.708 86.6378 5.568 87.3338 5.568C87.7578 5.568 88.1498 5.62 88.5098 5.724C88.8778 5.828 89.1938 5.968 89.4578 6.144C89.7298 6.32 89.9418 6.512 90.0938 6.72C90.2538 6.928 90.3378 7.136 90.3458 7.344L90.0098 7.332V5.7H91.2578V12H90.0098V10.332L90.2618 10.368C90.2538 10.568 90.1658 10.772 89.9978 10.98C89.8298 11.18 89.6058 11.368 89.3258 11.544C89.0458 11.712 88.7258 11.852 88.3658 11.964C88.0138 12.068 87.6418 12.12 87.2498 12.12ZM87.5378 10.98C88.0338 10.98 88.4698 10.888 88.8458 10.704C89.2298 10.512 89.5258 10.256 89.7338 9.936C89.9498 9.608 90.0578 9.244 90.0578 8.844C90.0578 8.436 89.9498 8.072 89.7338 7.752C89.5258 7.432 89.2298 7.18 88.8458 6.996C88.4698 6.812 88.0338 6.72 87.5378 6.72C87.0498 6.72 86.6138 6.812 86.2298 6.996C85.8538 7.18 85.5578 7.432 85.3418 7.752C85.1258 8.072 85.0178 8.436 85.0178 8.844C85.0178 9.244 85.1258 9.608 85.3418 9.936C85.5578 10.256 85.8538 10.512 86.2298 10.704C86.6138 10.888 87.0498 10.98 87.5378 10.98ZM95.3707 14.64V5.688H96.6187V7.14L96.4267 7.032C96.4827 6.808 96.6467 6.588 96.9187 6.372C97.1907 6.148 97.5307 5.964 97.9387 5.82C98.3547 5.668 98.7947 5.592 99.2587 5.592C99.9627 5.592 100.579 5.732 101.107 6.012C101.643 6.284 102.059 6.664 102.355 7.152C102.651 7.64 102.799 8.204 102.799 8.844C102.799 9.476 102.651 10.04 102.355 10.536C102.059 11.024 101.647 11.408 101.119 11.688C100.591 11.968 99.9827 12.108 99.2947 12.108C98.7907 12.108 98.3227 12.028 97.8907 11.868C97.4587 11.708 97.0987 11.512 96.8107 11.28C96.5307 11.04 96.3627 10.812 96.3067 10.596L96.6187 10.428V14.64H95.3707ZM99.0907 10.968C99.5867 10.968 100.023 10.876 100.399 10.692C100.775 10.5 101.071 10.244 101.287 9.924C101.503 9.604 101.611 9.244 101.611 8.844C101.611 8.444 101.503 8.084 101.287 7.764C101.079 7.444 100.783 7.192 100.399 7.008C100.023 6.824 99.5867 6.732 99.0907 6.732C98.6027 6.732 98.1667 6.824 97.7827 7.008C97.3987 7.192 97.0987 7.444 96.8827 7.764C96.6667 8.084 96.5587 8.444 96.5587 8.844C96.5587 9.244 96.6667 9.604 96.8827 9.924C97.0987 10.244 97.3987 10.5 97.7827 10.692C98.1667 10.876 98.6027 10.968 99.0907 10.968ZM106.211 14.64V5.688H107.459V7.14L107.267 7.032C107.323 6.808 107.487 6.588 107.759 6.372C108.031 6.148 108.371 5.964 108.779 5.82C109.195 5.668 109.635 5.592 110.099 5.592C110.803 5.592 111.419 5.732 111.947 6.012C112.483 6.284 112.899 6.664 113.195 7.152C113.491 7.64 113.639 8.204 113.639 8.844C113.639 9.476 113.491 10.04 113.195 10.536C112.899 11.024 112.487 11.408 111.959 11.688C111.431 11.968 110.823 12.108 110.135 12.108C109.631 12.108 109.163 12.028 108.731 11.868C108.299 11.708 107.939 11.512 107.651 11.28C107.371 11.04 107.202 10.812 107.146 10.596L107.459 10.428V14.64H106.211ZM109.931 10.968C110.427 10.968 110.863 10.876 111.239 10.692C111.615 10.5 111.911 10.244 112.127 9.924C112.343 9.604 112.451 9.244 112.451 8.844C112.451 8.444 112.343 8.084 112.127 7.764C111.919 7.444 111.623 7.192 111.239 7.008C110.863 6.824 110.427 6.732 109.931 6.732C109.443 6.732 109.007 6.824 108.623 7.008C108.239 7.192 107.939 7.444 107.723 7.764C107.507 8.084 107.399 8.444 107.399 8.844C107.399 9.244 107.507 9.604 107.723 9.924C107.939 10.244 108.239 10.5 108.623 10.692C109.007 10.876 109.443 10.968 109.931 10.968ZM122.183 14.64V5.688H123.431V7.14L123.239 7.032C123.295 6.808 123.459 6.588 123.731 6.372C124.003 6.148 124.343 5.964 124.751 5.82C125.167 5.668 125.607 5.592 126.071 5.592C126.775 5.592 127.391 5.732 127.919 6.012C128.455 6.284 128.871 6.664 129.167 7.152C129.463 7.64 129.611 8.204 129.611 8.844C129.611 9.476 129.463 10.04 129.167 10.536C128.871 11.024 128.459 11.408 127.931 11.688C127.403 11.968 126.795 12.108 126.107 12.108C125.603 12.108 125.135 12.028 124.703 11.868C124.271 11.708 123.911 11.512 123.623 11.28C123.343 11.04 123.175 10.812 123.119 10.596L123.431 10.428V14.64H122.183ZM125.903 10.968C126.399 10.968 126.835 10.876 127.211 10.692C127.587 10.5 127.883 10.244 128.099 9.924C128.315 9.604 128.423 9.244 128.423 8.844C128.423 8.444 128.315 8.084 128.099 7.764C127.891 7.444 127.595 7.192 127.211 7.008C126.835 6.824 126.399 6.732 125.903 6.732C125.415 6.732 124.979 6.824 124.595 7.008C124.211 7.192 123.911 7.444 123.695 7.764C123.479 8.084 123.371 8.444 123.371 8.844C123.371 9.244 123.479 9.604 123.695 9.924C123.911 10.244 124.211 10.5 124.595 10.692C124.979 10.876 125.415 10.968 125.903 10.968ZM136.035 12.12C135.275 12.12 134.599 11.98 134.007 11.7C133.423 11.42 132.963 11.032 132.627 10.536C132.299 10.04 132.135 9.476 132.135 8.844C132.135 8.204 132.299 7.64 132.627 7.152C132.963 6.656 133.423 6.268 134.007 5.988C134.599 5.708 135.275 5.568 136.035 5.568C136.795 5.568 137.467 5.708 138.051 5.988C138.635 6.268 139.095 6.656 139.431 7.152C139.767 7.64 139.935 8.204 139.935 8.844C139.935 9.476 139.767 10.04 139.431 10.536C139.095 11.032 138.635 11.42 138.051 11.7C137.467 11.98 136.795 12.12 136.035 12.12ZM136.035 10.992C136.539 10.992 136.991 10.9 137.391 10.716C137.791 10.532 138.107 10.28 138.339 9.96C138.579 9.632 138.691 9.26 138.675 8.844C138.691 8.42 138.579 8.048 138.339 7.728C138.107 7.408 137.791 7.156 137.391 6.972C136.991 6.788 136.539 6.696 136.035 6.696C135.539 6.696 135.087 6.788 134.679 6.972C134.279 7.156 133.963 7.412 133.731 7.74C133.499 8.06 133.387 8.428 133.395 8.844C133.387 9.26 133.499 9.632 133.731 9.96C133.963 10.28 134.279 10.532 134.679 10.716C135.087 10.9 135.539 10.992 136.035 10.992ZM144.037 12L141.769 5.7L143.113 5.688L144.661 10.572L144.385 10.548L146.233 6.696H147.205L149.077 10.56L148.849 10.584L150.637 5.7H151.885L149.449 12H148.597L146.389 7.416L147.097 7.32L144.877 12H144.037ZM157.692 12.12C156.916 12.12 156.224 11.984 155.616 11.712C155.008 11.432 154.532 11.052 154.188 10.572C153.852 10.084 153.684 9.532 153.684 8.916C153.684 8.396 153.784 7.932 153.984 7.524C154.184 7.108 154.464 6.756 154.824 6.468C155.184 6.18 155.6 5.956 156.072 5.796C156.552 5.636 157.056 5.556 157.584 5.556C158.08 5.556 158.544 5.632 158.976 5.784C159.408 5.936 159.788 6.148 160.116 6.42C160.444 6.692 160.696 7.016 160.872 7.392C161.056 7.76 161.144 8.168 161.136 8.616L161.124 9.228H154.764L154.488 8.244H160.056L159.876 8.364V8.076C159.836 7.804 159.704 7.564 159.48 7.356C159.256 7.148 158.976 6.988 158.64 6.876C158.312 6.756 157.96 6.696 157.584 6.696C157.072 6.696 156.612 6.768 156.204 6.912C155.804 7.056 155.488 7.284 155.256 7.596C155.024 7.908 154.908 8.32 154.908 8.832C154.908 9.264 155.032 9.644 155.28 9.972C155.536 10.292 155.888 10.54 156.336 10.716C156.792 10.892 157.312 10.98 157.896 10.98C158.456 10.98 158.924 10.904 159.3 10.752C159.684 10.6 160.012 10.432 160.284 10.248L160.848 11.16C160.624 11.336 160.34 11.496 159.996 11.64C159.66 11.784 159.292 11.9 158.892 11.988C158.5 12.076 158.1 12.12 157.692 12.12ZM164.664 12V5.7H165.912V7.908L165.612 7.716C165.732 7.324 165.928 6.964 166.2 6.636C166.472 6.308 166.788 6.048 167.148 5.856C167.508 5.664 167.88 5.568 168.264 5.568C168.512 5.568 168.752 5.596 168.984 5.652C169.224 5.7 169.412 5.768 169.548 5.856L169.224 7.152C169.072 7.064 168.884 6.996 168.66 6.948C168.444 6.9 168.24 6.876 168.048 6.876C167.728 6.876 167.436 6.932 167.172 7.044C166.908 7.148 166.68 7.292 166.488 7.476C166.304 7.66 166.16 7.864 166.056 8.088C165.96 8.312 165.912 8.544 165.912 8.784V12H164.664ZM175.528 12.12C174.752 12.12 174.06 11.984 173.452 11.712C172.844 11.432 172.368 11.052 172.024 10.572C171.688 10.084 171.52 9.532 171.52 8.916C171.52 8.396 171.62 7.932 171.82 7.524C172.02 7.108 172.3 6.756 172.66 6.468C173.02 6.18 173.436 5.956 173.908 5.796C174.388 5.636 174.892 5.556 175.42 5.556C175.916 5.556 176.38 5.632 176.812 5.784C177.244 5.936 177.624 6.148 177.952 6.42C178.28 6.692 178.532 7.016 178.708 7.392C178.892 7.76 178.98 8.168 178.972 8.616L178.96 9.228H172.6L172.324 8.244H177.892L177.712 8.364V8.076C177.672 7.804 177.54 7.564 177.316 7.356C177.092 7.148 176.812 6.988 176.476 6.876C176.148 6.756 175.796 6.696 175.42 6.696C174.908 6.696 174.448 6.768 174.04 6.912C173.64 7.056 173.324 7.284 173.092 7.596C172.86 7.908 172.744 8.32 172.744 8.832C172.744 9.264 172.868 9.644 173.116 9.972C173.372 10.292 173.724 10.54 174.172 10.716C174.628 10.892 175.148 10.98 175.732 10.98C176.292 10.98 176.76 10.904 177.136 10.752C177.52 10.6 177.848 10.432 178.12 10.248L178.684 11.16C178.46 11.336 178.176 11.496 177.832 11.64C177.496 11.784 177.128 11.9 176.728 11.988C176.336 12.076 175.936 12.12 175.528 12.12ZM185.068 12.12C184.356 12.12 183.732 11.98 183.196 11.7C182.668 11.42 182.256 11.032 181.96 10.536C181.672 10.04 181.528 9.476 181.528 8.844C181.528 8.204 181.68 7.64 181.984 7.152C182.288 6.656 182.708 6.268 183.244 5.988C183.788 5.708 184.408 5.568 185.104 5.568C185.528 5.568 185.924 5.62 186.292 5.724C186.66 5.828 186.984 5.968 187.264 6.144C187.544 6.32 187.76 6.508 187.912 6.708C188.064 6.908 188.14 7.108 188.14 7.308L187.78 7.332V3.12H189.016V12H187.78V10.332L188.02 10.392C188.02 10.584 187.94 10.78 187.78 10.98C187.62 11.18 187.4 11.368 187.12 11.544C186.848 11.712 186.532 11.852 186.172 11.964C185.82 12.068 185.452 12.12 185.068 12.12ZM185.308 11.004C185.804 11.004 186.24 10.908 186.616 10.716C187 10.524 187.296 10.268 187.504 9.948C187.72 9.62 187.828 9.252 187.828 8.844C187.828 8.436 187.72 8.072 187.504 7.752C187.296 7.424 187 7.168 186.616 6.984C186.24 6.792 185.804 6.696 185.308 6.696C184.812 6.696 184.376 6.792 184 6.984C183.624 7.168 183.328 7.424 183.112 7.752C182.896 8.072 182.788 8.436 182.788 8.844C182.788 9.252 182.896 9.62 183.112 9.948C183.328 10.268 183.624 10.524 184 10.716C184.376 10.908 184.812 11.004 185.308 11.004ZM201.841 12.12C201.465 12.12 201.105 12.068 200.761 11.964C200.417 11.86 200.109 11.728 199.837 11.568C199.573 11.4 199.353 11.224 199.177 11.04C199.001 10.848 198.889 10.672 198.841 10.512L199.333 10.428V11.964H198.097V3.12H199.333V7.14L198.961 7.116C199.009 6.948 199.117 6.776 199.285 6.6C199.453 6.424 199.669 6.26 199.933 6.108C200.197 5.948 200.493 5.82 200.821 5.724C201.157 5.62 201.513 5.568 201.889 5.568C202.553 5.568 203.149 5.708 203.677 5.988C204.213 6.268 204.637 6.652 204.949 7.14C205.269 7.628 205.429 8.192 205.429 8.832C205.429 9.464 205.273 10.028 204.961 10.524C204.657 11.02 204.233 11.412 203.689 11.7C203.153 11.98 202.537 12.12 201.841 12.12ZM201.721 10.98C202.209 10.98 202.641 10.888 203.017 10.704C203.393 10.512 203.689 10.256 203.905 9.936C204.121 9.608 204.229 9.24 204.229 8.832C204.229 8.424 204.121 8.06 203.905 7.74C203.689 7.42 203.393 7.168 203.017 6.984C202.641 6.8 202.209 6.708 201.721 6.708C201.225 6.708 200.785 6.8 200.401 6.984C200.025 7.168 199.725 7.42 199.501 7.74C199.285 8.06 199.177 8.424 199.177 8.832C199.177 9.24 199.285 9.608 199.501 9.936C199.725 10.256 200.025 10.512 200.401 10.704C200.785 10.888 201.225 10.98 201.721 10.98ZM209.593 14.76L211.177 11.832V12.78L207.421 5.7H208.861L210.757 9.48C210.981 9.888 211.173 10.264 211.333 10.608C211.493 10.952 211.601 11.26 211.657 11.532L211.453 11.544C211.557 11.28 211.685 10.972 211.837 10.62C211.989 10.268 212.169 9.88 212.377 9.456L214.129 5.7H215.581L212.293 12.048L210.925 14.76H209.593Z" fill="black"/>
</svg>